<svg width="29" height="28" viewBox="0 0 29 28" fill="none" xmlns="http://www.w3.org/2000/svg">
<path fill-rule="evenodd" clip-rule="evenodd" d="M11.3409 6.99942C11.3409 6.8272 11.4281 6.46143 11.782 6.13374C12.1238 5.81727 12.7852 5.47378 14.0332 5.47378C15.2812 5.47378 15.9427 5.81727 16.2845 6.13374C16.6384 6.46143 16.7255 6.8272 16.7255 6.99942H18.3409C18.3409 6.39387 18.0781 5.59298 17.382 4.94844C16.6738 4.29269 15.5852 3.8584 14.0332 3.8584C12.4812 3.8584 11.3927 4.29269 10.6845 4.94844C9.98836 5.59298 9.72552 6.39387 9.72552 6.99942H11.3409ZM11.3409 6.99977V8.82024H16.7255V6.99977H18.3409V8.82024H21.1153C21.5613 8.82024 21.9229 9.18185 21.9229 9.62793V20.661C21.9229 21.2954 21.6688 21.9024 21.2187 22.349C20.7687 22.7953 20.1598 23.0449 19.5263 23.0449H8.40344C7.76991 23.0449 7.16102 22.7953 6.71106 22.349C6.26088 21.9024 6.00677 21.2954 6.00677 20.661V9.62793C6.00677 9.18185 6.36839 8.82024 6.81447 8.82024H9.72552V6.99977H11.3409ZM9.72552 12.8331V10.4356H7.62216V20.661C7.62216 20.8627 7.70287 21.0575 7.84867 21.2021C7.9947 21.347 8.19413 21.4295 8.40344 21.4295H19.5263C19.7356 21.4295 19.935 21.347 20.081 21.2021C20.2269 21.0575 20.3076 20.8627 20.3076 20.661V10.4356H18.3409V12.8331H16.7255V10.4356H11.3409V12.8331H9.72552Z" fill="white"/>
</svg>
