<svg width="29" height="28" viewBox="0 0 29 28" fill="none" xmlns="http://www.w3.org/2000/svg">
<path fill-rule="evenodd" clip-rule="evenodd" d="M11.8073 6.99942C11.8073 6.8272 11.8944 6.46143 12.2483 6.13374C12.5901 5.81727 13.2516 5.47378 14.4996 5.47378C15.7476 5.47378 16.409 5.81727 16.7508 6.13374C17.1047 6.46143 17.1919 6.8272 17.1919 6.99942H18.8073C18.8073 6.39387 18.5444 5.59298 17.8483 4.94844C17.1401 4.29269 16.0516 3.8584 14.4996 3.8584C12.9476 3.8584 11.859 4.29269 11.1508 4.94844C10.4547 5.59298 10.1919 6.39387 10.1919 6.99942H11.8073ZM11.8073 6.99977V8.82024H17.1919V6.99977H18.8073V8.82024H21.5816C22.0277 8.82024 22.3893 9.18185 22.3893 9.62793V20.661C22.3893 21.2954 22.1352 21.9024 21.685 22.349C21.2351 22.7953 20.6262 23.0449 19.9926 23.0449H8.86981C8.23628 23.0449 7.62739 22.7953 7.17743 22.349C6.72725 21.9024 6.47314 21.2954 6.47314 20.661V9.62793C6.47314 9.18185 6.83476 8.82024 7.28084 8.82024H10.1919V6.99977H11.8073ZM10.1919 12.8331V10.4356H8.08853V20.661C8.08853 20.8627 8.16924 21.0575 8.31504 21.2021C8.46107 21.347 8.6605 21.4295 8.86981 21.4295H19.9926C20.202 21.4295 20.4014 21.347 20.5474 21.2021C20.6932 21.0575 20.7739 20.8627 20.7739 20.661V10.4356H18.8073V12.8331H17.1919V10.4356H11.8073V12.8331H10.1919Z" fill="white"/>
<g clip-path="url(#clip0_2010_80714)">
<circle cx="20" cy="20" r="6" fill="white"/>
<path d="M18.257 23V22.2023L20.1209 20.4764C20.2794 20.323 20.4123 20.1849 20.5197 20.0622C20.6288 19.9395 20.7115 19.8193 20.7677 19.7017C20.824 19.5824 20.8521 19.4537 20.8521 19.3156C20.8521 19.1622 20.8172 19.0301 20.7473 18.9193C20.6774 18.8068 20.582 18.7207 20.4609 18.6611C20.3399 18.5997 20.2027 18.569 20.0493 18.569C19.8891 18.569 19.7493 18.6014 19.63 18.6662C19.5106 18.731 19.4186 18.8239 19.3538 18.9449C19.2891 19.0659 19.2567 19.2099 19.2567 19.377H18.2058C18.2058 19.0344 18.2834 18.7369 18.4385 18.4847C18.5936 18.2324 18.8109 18.0372 19.0905 17.8991C19.37 17.7611 19.6922 17.692 20.057 17.692C20.432 17.692 20.7584 17.7585 21.0362 17.8915C21.3158 18.0227 21.5331 18.2051 21.6882 18.4386C21.8433 18.6722 21.9209 18.9398 21.9209 19.2415C21.9209 19.4392 21.8817 19.6344 21.8033 19.827C21.7266 20.0196 21.5893 20.2335 21.3916 20.4687C21.1939 20.7023 20.9152 20.9827 20.5555 21.3099L19.791 22.0591V22.0949H21.9899V23H18.257Z" fill="#121212"/>
</g>
<defs>
<clipPath id="clip0_2010_80714">
<rect width="12" height="12" fill="white" transform="translate(14 14)"/>
</clipPath>
</defs>
</svg>
