<svg width="28" height="28" viewBox="0 0 28 28" fill="none" xmlns="http://www.w3.org/2000/svg">
<path fill-rule="evenodd" clip-rule="evenodd" d="M5.72622 11.914C5.72622 8.5632 8.4426 5.84683 11.7934 5.84683C15.1442 5.84683 17.8606 8.5632 17.8606 11.914C17.8606 15.2648 15.1442 17.9812 11.7934 17.9812C8.4426 17.9812 5.72622 15.2648 5.72622 11.914ZM11.7934 4.23145C7.55044 4.23145 4.11084 7.67105 4.11084 11.914C4.11084 16.157 7.55044 19.5966 11.7934 19.5966C13.6238 19.5966 15.3047 18.9565 16.6245 17.8879L22.0253 23.2887C22.3407 23.6041 22.8521 23.6041 23.1676 23.2887C23.483 22.9733 23.483 22.4619 23.1676 22.1465L17.7668 16.7457C18.8357 15.4258 19.476 13.7447 19.476 11.914C19.476 7.67105 16.0364 4.23145 11.7934 4.23145Z" fill="white"/>
</svg>
