<svg width="20" height="20" viewBox="0 0 20 20" fill="none" xmlns="http://www.w3.org/2000/svg">
<path d="M10.0001 13.3337C13.2217 13.3337 15.8334 10.722 15.8334 7.50033C15.8334 4.27866 13.2217 1.66699 10.0001 1.66699C6.77842 1.66699 4.16675 4.27866 4.16675 7.50033C4.16675 10.722 6.77842 13.3337 10.0001 13.3337Z" stroke="url(#paint0_linear_2010_80488)" stroke-width="1.5"/>
<path d="M6.12596 12.5L5.59513 14.4358C5.07179 16.3458 4.81013 17.3008 5.15929 17.8233C5.28179 18.0067 5.44596 18.1533 5.63679 18.2508C6.18013 18.5275 7.02013 18.09 8.69929 17.215C9.25763 16.9233 9.53762 16.7783 9.83429 16.7467C9.94453 16.7349 10.0557 16.7349 10.166 16.7467C10.4626 16.7783 10.7418 16.9242 11.301 17.215C12.9801 18.09 13.8201 18.5275 14.3635 18.2508C14.5543 18.1533 14.7185 18.0067 14.841 17.8233C15.191 17.3008 14.9285 16.3458 14.4051 14.4358L13.8743 12.5" stroke="url(#paint1_linear_2010_80488)" stroke-width="1.5" stroke-linecap="round"/>
<defs>
<linearGradient id="paint0_linear_2010_80488" x1="15.8334" y1="7.50033" x2="4.16675" y2="7.50033" gradientUnits="userSpaceOnUse">
<stop stop-color="#C66E26"/>
<stop offset="1" stop-color="#F8D7A7"/>
</linearGradient>
<linearGradient id="paint1_linear_2010_80488" x1="15.0004" y1="15.4167" x2="5.00024" y2="15.4167" gradientUnits="userSpaceOnUse">
<stop stop-color="#C66E26"/>
<stop offset="1" stop-color="#F8D7A7"/>
</linearGradient>
</defs>
</svg>
