<svg width="19" height="20" viewBox="0 0 19 20" fill="none" xmlns="http://www.w3.org/2000/svg">
<path d="M9.13454 1.37872C9.26975 1.05363 9.73028 1.05363 9.8655 1.37872L11.92 6.31823C11.977 6.45528 12.1058 6.54892 12.2538 6.56078L17.5864 6.9883C17.9374 7.01643 18.0797 7.45443 17.8123 7.68349L13.7494 11.1638C13.6367 11.2603 13.5875 11.4119 13.6219 11.5562L14.8632 16.76C14.9449 17.1025 14.5723 17.3731 14.2718 17.1896L9.70635 14.4011C9.57967 14.3237 9.42036 14.3237 9.29369 14.4011L4.72823 17.1896C4.42775 17.3731 4.05517 17.1025 4.13687 16.76L5.37815 11.5562C5.41259 11.4119 5.36336 11.2603 5.25063 11.1638L1.18774 7.68348C0.920338 7.45443 1.06265 7.01643 1.41362 6.9883L6.74623 6.56078C6.89419 6.54892 7.02308 6.45528 7.08008 6.31823L9.13454 1.37872Z" fill="#FF9A46"/>
</svg>
