<svg width="28" height="28" viewBox="0 0 28 28" fill="none" xmlns="http://www.w3.org/2000/svg">
<path fill-rule="evenodd" clip-rule="evenodd" d="M9.65581 9.33373C9.65581 7.20248 11.3835 5.47476 13.5148 5.47476C15.646 5.47476 17.3738 7.20248 17.3738 9.33373C17.3738 11.465 15.646 13.1927 13.5148 13.1927C11.3835 13.1927 9.65581 11.465 9.65581 9.33373ZM13.5148 3.85938C10.4914 3.85938 8.04043 6.31033 8.04043 9.33373C8.04043 12.3571 10.4914 14.8081 13.5148 14.8081C16.5382 14.8081 18.9891 12.3571 18.9891 9.33373C18.9891 6.31033 16.5382 3.85938 13.5148 3.85938ZM8.45268 19.3169C9.17638 18.5932 10.1579 18.1866 11.1814 18.1866H15.8481C16.8715 18.1866 17.8531 18.5932 18.5768 19.3169C19.3005 20.0406 19.707 21.0221 19.707 22.0456V24.3789C19.707 24.825 20.0686 25.1866 20.5147 25.1866C20.9608 25.1866 21.3224 24.825 21.3224 24.3789V22.0456C21.3224 20.5937 20.7457 19.2013 19.719 18.1746C18.6924 17.148 17.2999 16.5712 15.8481 16.5712H11.1814C9.7295 16.5712 8.33707 17.148 7.31043 18.1746C6.28379 19.2013 5.70703 20.5937 5.70703 22.0456V24.3789C5.70703 24.825 6.06865 25.1866 6.51472 25.1866C6.9608 25.1866 7.32242 24.825 7.32242 24.3789V22.0456C7.32242 21.0221 7.72899 20.0406 8.45268 19.3169Z" fill="white"/>
</svg>
